<?xml version="1.0" standalone="no"?>
<!DOCTYPE svg PUBLIC "-//W3C//DTD SVG 20010904//EN"
 "http://www.w3.org/TR/2001/REC-SVG-20010904/DTD/svg10.dtd">
<svg version="1.0" xmlns="http://www.w3.org/2000/svg"
 width="1024.000000pt" height="1024.000000pt" viewBox="0 0 1024.000000 1024.000000"
 preserveAspectRatio="xMidYMid meet">
<metadata>
Created by potrace 1.11, written by Peter Selinger 2001-2013
</metadata>
<g transform="translate(0.000000,1024.000000) scale(0.100000,-0.100000)"
fill="#205081" stroke="none">
<path d="M4465 7819 c-1170 -102 -2188 -898 -2570 -2010 -375 -1089 -98 -2286
715 -3099 813 -813 2010 -1090 3099 -715 867 298 1558 989 1856 1856 375 1089
98 2286 -715 3099 -629 629 -1498 945 -2385 869z m625 -1439 l0 -350 113 0
c121 0 154 -9 194 -52 25 -28 35 -66 27 -105 -4 -19 -55 -86 -136 -179 -71
-82 -151 -173 -177 -203 -25 -30 -51 -59 -56 -65 -6 -6 -46 -51 -89 -101 -43
-49 -106 -121 -140 -159 -33 -38 -67 -77 -74 -87 -18 -27 -35 -24 -60 10 -12
16 -41 51 -65 78 -65 71 -333 377 -541 618 -62 71 -74 109 -50 160 32 66 77
85 212 85 l112 0 0 350 0 350 365 0 365 0 0 -350z m-1420 -548 c0 -110 -2
-129 -17 -138 -10 -6 -54 -30 -98 -54 -44 -24 -120 -68 -168 -97 -48 -29 -91
-53 -95 -53 -14 -1 -117 -70 -103 -70 7 0 62 -29 121 -65 59 -36 110 -65 113
-65 3 0 62 -34 131 -75 69 -41 128 -75 131 -75 3 0 54 -29 114 -65 60 -36 112
-65 115 -65 3 0 50 -27 104 -60 55 -33 105 -60 111 -60 6 0 11 -4 11 -10 0 -5
5 -10 11 -10 5 0 60 -29 120 -65 60 -36 111 -65 114 -65 3 0 49 -26 102 -58
54 -32 106 -61 116 -65 16 -6 17 -56 17 -842 l0 -835 -30 0 c-16 0 -30 4 -30
9 0 5 -8 11 -17 15 -10 3 -25 10 -33 15 -31 21 -222 131 -227 131 -3 0 -54 29
-113 65 -59 36 -110 65 -114 65 -3 0 -45 24 -93 53 -48 29 -124 73 -168 97
-44 24 -108 61 -143 82 -34 21 -65 38 -68 38 -3 0 -55 29 -114 65 -59 36 -110
65 -114 65 -3 0 -45 24 -93 53 -88 53 -219 127 -280 156 l-32 16 -1 853 c0
624 3 852 11 852 10 0 124 64 179 100 8 6 22 13 30 17 8 3 63 35 121 69 59 35
109 64 112 64 5 0 178 99 227 129 37 24 40 15 40 -117z m2229 73 c51 -30 94
-55 97 -55 4 0 55 -29 114 -65 59 -36 110 -65 114 -65 3 0 45 -24 93 -53 48
-29 114 -66 146 -82 l57 -29 -2 -840 c-3 -734 -5 -840 -18 -847 -8 -4 -66 -37
-128 -73 -63 -37 -115 -66 -118 -66 -2 0 -49 -27 -103 -59 -55 -33 -109 -62
-121 -66 -11 -3 -20 -11 -20 -16 0 -5 -5 -9 -11 -9 -6 0 -60 -29 -119 -65 -59
-36 -110 -65 -113 -65 -3 0 -51 -27 -107 -60 -56 -33 -104 -60 -107 -60 -3 0
-54 -29 -113 -65 -59 -36 -113 -65 -119 -65 -6 0 -11 -4 -11 -10 0 -5 -5 -10
-11 -10 -6 0 -60 -29 -119 -65 -59 -36 -111 -65 -114 -65 -4 0 -48 -25 -98
-55 -50 -30 -99 -55 -110 -55 -17 0 -18 29 -18 834 l0 835 59 35 c32 20 64 36
70 36 6 0 11 5 11 10 0 6 5 10 11 10 6 0 60 29 120 65 61 36 112 65 115 65 2
0 53 29 113 65 60 36 115 65 120 65 6 0 11 5 11 10 0 6 5 10 11 10 6 0 60 29
119 65 59 36 111 65 114 65 3 0 51 27 107 60 55 33 103 60 105 60 2 0 59 33
127 73 68 39 144 83 170 97 l47 24 -47 29 c-25 16 -71 42 -102 59 -31 17 -103
58 -161 92 -58 34 -122 70 -142 81 l-38 20 0 127 c0 102 3 128 14 128 7 0 55
-25 105 -55z"/>
<path d="M5996 4735 c-8 -8 -18 -15 -21 -15 -4 0 -56 -29 -115 -65 -59 -36
-110 -65 -113 -65 -3 0 -52 -27 -109 -61 -57 -34 -131 -76 -165 -95 -35 -18
-81 -45 -103 -59 l-40 -25 0 -100 c0 -55 3 -100 6 -100 3 0 43 23 89 50 46 28
88 50 94 50 6 0 11 5 11 10 0 6 5 10 11 10 5 0 60 29 120 65 60 36 111 65 114
65 3 0 54 29 114 65 60 36 115 65 120 65 7 0 11 39 11 110 0 61 -2 110 -4 110
-3 0 -11 -7 -20 -15z"/>
</g>
</svg>
